<mxfile host="app.diagrams.net" agent="Mozilla/5.0 (Windows NT 10.0; Win64; x64) AppleWebKit/537.36 (KHTML, like Gecko) Chrome/130.0.0.0 Safari/537.36" version="24.8.2">
  <diagram name="Seite-1" id="714b4bOarqqcY9tGsNTd">
    <mxGraphModel dx="1434" dy="780" grid="1" gridSize="10" guides="1" tooltips="1" connect="1" arrows="1" fold="1" page="1" pageScale="1" pageWidth="827" pageHeight="1169" math="0" shadow="0">
      <root>
        <mxCell id="0" />
        <mxCell id="1" parent="0" />
        <mxCell id="N33WXFOn6wKkvZsWlPI5-5" value="" style="edgeStyle=orthogonalEdgeStyle;rounded=0;orthogonalLoop=1;jettySize=auto;html=1;" edge="1" parent="1" source="N33WXFOn6wKkvZsWlPI5-1" target="N33WXFOn6wKkvZsWlPI5-2">
          <mxGeometry relative="1" as="geometry" />
        </mxCell>
        <mxCell id="N33WXFOn6wKkvZsWlPI5-1" value="&lt;b&gt;Build and Test&lt;/b&gt;&lt;div&gt;&lt;b&gt;Workflow&lt;/b&gt;&lt;/div&gt;&lt;div&gt;&lt;br&gt;&lt;/div&gt;&lt;div&gt;on PullRequest/push to main branch&lt;/div&gt;" style="rounded=0;whiteSpace=wrap;html=1;" vertex="1" parent="1">
          <mxGeometry x="70" y="360" width="120" height="110" as="geometry" />
        </mxCell>
        <mxCell id="N33WXFOn6wKkvZsWlPI5-6" value="" style="edgeStyle=orthogonalEdgeStyle;rounded=0;orthogonalLoop=1;jettySize=auto;html=1;" edge="1" parent="1" source="N33WXFOn6wKkvZsWlPI5-2" target="N33WXFOn6wKkvZsWlPI5-4">
          <mxGeometry relative="1" as="geometry" />
        </mxCell>
        <mxCell id="N33WXFOn6wKkvZsWlPI5-8" value="" style="edgeStyle=orthogonalEdgeStyle;rounded=0;orthogonalLoop=1;jettySize=auto;html=1;" edge="1" parent="1" source="N33WXFOn6wKkvZsWlPI5-2" target="N33WXFOn6wKkvZsWlPI5-3">
          <mxGeometry relative="1" as="geometry" />
        </mxCell>
        <mxCell id="N33WXFOn6wKkvZsWlPI5-2" value="&lt;b&gt;Dev and Release&lt;/b&gt;&lt;br&gt;&lt;div&gt;&lt;b&gt;Workflow&lt;/b&gt;&lt;/div&gt;&lt;div&gt;&lt;br&gt;&lt;/div&gt;&lt;div&gt;Deploy to Dev and create Release branch&lt;b&gt;&lt;/b&gt;&lt;/div&gt;" style="rounded=0;whiteSpace=wrap;html=1;" vertex="1" parent="1">
          <mxGeometry x="282.5" y="360" width="135" height="110" as="geometry" />
        </mxCell>
        <mxCell id="N33WXFOn6wKkvZsWlPI5-3" value="DockerHub" style="ellipse;shape=cloud;whiteSpace=wrap;html=1;" vertex="1" parent="1">
          <mxGeometry x="290" y="210" width="120" height="80" as="geometry" />
        </mxCell>
        <mxCell id="N33WXFOn6wKkvZsWlPI5-10" style="edgeStyle=orthogonalEdgeStyle;rounded=0;orthogonalLoop=1;jettySize=auto;html=1;entryX=0.942;entryY=0.375;entryDx=0;entryDy=0;entryPerimeter=0;exitX=0.875;exitY=0.5;exitDx=0;exitDy=0;exitPerimeter=0;" edge="1" parent="1" source="N33WXFOn6wKkvZsWlPI5-4" target="N33WXFOn6wKkvZsWlPI5-3">
          <mxGeometry relative="1" as="geometry">
            <mxPoint x="620" y="240" as="targetPoint" />
            <Array as="points">
              <mxPoint x="621" y="605" />
              <mxPoint x="621" y="240" />
            </Array>
          </mxGeometry>
        </mxCell>
        <mxCell id="N33WXFOn6wKkvZsWlPI5-4" value="Dev VM&lt;div&gt;(docker-compose)&lt;/div&gt;" style="ellipse;shape=cloud;whiteSpace=wrap;html=1;" vertex="1" parent="1">
          <mxGeometry x="260" y="550" width="180" height="110" as="geometry" />
        </mxCell>
        <mxCell id="N33WXFOn6wKkvZsWlPI5-7" value="&lt;div&gt;&lt;span style=&quot;background-color: initial;&quot;&gt;Deploy to Dev VM&lt;/span&gt;&lt;/div&gt;" style="text;html=1;align=center;verticalAlign=middle;resizable=0;points=[];autosize=1;strokeColor=none;fillColor=none;" vertex="1" parent="1">
          <mxGeometry x="350" y="508" width="120" height="30" as="geometry" />
        </mxCell>
        <mxCell id="N33WXFOn6wKkvZsWlPI5-9" value="&lt;span style=&quot;text-align: left;&quot;&gt;Create Docker File and push to DockerHub&lt;/span&gt;" style="text;html=1;align=center;verticalAlign=middle;resizable=0;points=[];autosize=1;strokeColor=none;fillColor=none;" vertex="1" parent="1">
          <mxGeometry x="350" y="310" width="250" height="30" as="geometry" />
        </mxCell>
        <mxCell id="N33WXFOn6wKkvZsWlPI5-11" value="Pulling Docker Image&lt;div&gt;using docker-compose&lt;/div&gt;" style="text;html=1;align=center;verticalAlign=middle;resizable=0;points=[];autosize=1;strokeColor=none;fillColor=none;" vertex="1" parent="1">
          <mxGeometry x="620" y="395" width="140" height="40" as="geometry" />
        </mxCell>
      </root>
    </mxGraphModel>
  </diagram>
</mxfile>
